<?xml version="1.0" encoding="UTF-8" standalone="no"?>
<!DOCTYPE svg PUBLIC "-//W3C//DTD SVG 1.1//EN" "http://www.w3.org/Graphics/SVG/1.1/DTD/svg11.dtd">
<svg width="100%" height="100%" viewBox="0 0 1374 2326" version="1.1" xmlns="http://www.w3.org/2000/svg" xmlns:xlink="http://www.w3.org/1999/xlink" xml:space="preserve" xmlns:serif="http://www.serif.com/" style="fill-rule:evenodd;clip-rule:evenodd;stroke-linecap:round;stroke-linejoin:round;stroke-miterlimit:1.5;">
    <g id="Plan-de-travail1" serif:id="Plan de travail1" transform="matrix(1.463,0,0,2.09635,-7935.48,-188.08)">
        <rect x="5424.12" y="89.72" width="938.667" height="1109.33" style="fill:none;"/>
        <g transform="matrix(1.47832,0,0,1.03169,4034.79,-8647.34)">
            <path d="M966.366,8506.35C966.366,8506.35 1053.16,8506.35 1112.4,8506.35C1126.71,8506.35 1140.44,8512.04 1150.56,8522.16C1160.68,8532.28 1166.37,8546.01 1166.37,8560.32C1166.37,8739.95 1166.37,9306.35 1166.37,9306.35C1166.37,9306.35 1396.03,9306.35 1507.31,9306.35C1522.97,9306.35 1537.99,9312.58 1549.07,9323.65C1560.14,9334.73 1566.37,9349.75 1566.37,9365.41C1566.37,9424.39 1566.37,9506.35 1566.37,9506.35L966.366,9506.35L966.366,8506.35Z" style="fill:rgb(228,137,0);stroke:black;stroke-width:11.03px;"/>
        </g>
    </g>
</svg>
