<?xml version="1.0" encoding="UTF-8" standalone="no"?>
<!DOCTYPE svg PUBLIC "-//W3C//DTD SVG 1.1//EN" "http://www.w3.org/Graphics/SVG/1.1/DTD/svg11.dtd">
<svg width="100%" height="100%" viewBox="0 0 40 40" version="1.1" xmlns="http://www.w3.org/2000/svg" xmlns:xlink="http://www.w3.org/1999/xlink" xml:space="preserve" xmlns:serif="http://www.serif.com/" style="fill-rule:evenodd;clip-rule:evenodd;stroke-linejoin:round;stroke-miterlimit:1.41421;">
    <g id="Instagram" transform="matrix(0.0614991,0,0,0.0649377,-132.337,0)">
        <rect x="2151.86" y="0" width="650.417" height="615.975" style="fill:none;"/>
        <clipPath id="_clip1">
            <rect x="2151.86" y="0" width="650.417" height="615.975"/>
        </clipPath>
        <g clip-path="url(#_clip1)">
            <g transform="matrix(16.2604,0,0,15.3994,-32824.3,0)">
                <path d="M2191,11.387C2191,8.367 2189.8,5.47 2187.66,3.335C2185.53,1.2 2182.63,0 2179.61,0C2174.22,0 2167.78,0 2162.39,0C2159.37,0 2156.47,1.2 2154.34,3.335C2152.2,5.47 2151,8.367 2151,11.387C2151,16.784 2151,23.216 2151,28.613C2151,31.633 2152.2,34.53 2154.34,36.665C2156.47,38.8 2159.37,40 2162.39,40C2167.78,40 2174.22,40 2179.61,40C2182.63,40 2185.53,38.8 2187.66,36.665C2189.8,34.53 2191,31.633 2191,28.613C2191,23.216 2191,16.784 2191,11.387Z" style="fill:rgb(220,53,105);"/>
            </g>
            <g transform="matrix(0.968187,0,0,0.916919,2233.16,76.8511)">
                <path d="M251.921,0.159C183.503,0.159 174.924,0.449 148.054,1.675C121.24,2.899 102.927,7.157 86.902,13.385C70.336,19.823 56.287,28.437 42.282,42.442C28.277,56.447 19.663,70.496 13.225,87.062C6.997,103.086 2.739,121.399 1.515,148.213C0.289,175.083 0,183.662 0,252.08C0,320.497 0.289,329.076 1.515,355.946C2.739,382.76 6.997,401.073 13.225,417.097C19.663,433.663 28.277,447.712 42.282,461.718C56.287,475.723 70.336,484.337 86.902,490.775C102.927,497.002 121.24,501.261 148.054,502.484C174.924,503.71 183.503,504 251.921,504C320.338,504 328.917,503.71 355.787,502.484C382.601,501.261 400.914,497.002 416.938,490.775C433.504,484.337 447.553,475.723 461.559,461.718C475.564,447.712 484.178,433.663 490.616,417.097C496.843,401.073 501.102,382.76 502.325,355.946C503.551,329.076 503.841,320.497 503.841,252.08C503.841,183.662 503.551,175.083 502.325,148.213C501.102,121.399 496.843,103.086 490.616,87.062C484.178,70.496 475.564,56.447 461.559,42.442C447.553,28.437 433.504,19.823 416.938,13.385C400.914,7.157 382.601,2.899 355.787,1.675C328.917,0.449 320.338,0.159 251.921,0.159ZM251.921,45.551C319.186,45.551 327.154,45.807 353.718,47.019C378.28,48.14 391.619,52.244 400.496,55.693C412.255,60.263 420.647,65.723 429.462,74.538C438.278,83.353 443.737,91.746 448.307,103.504C451.757,112.381 455.861,125.72 456.981,150.282C458.193,176.846 458.45,184.814 458.45,252.08C458.45,319.345 458.193,327.313 456.981,353.877C455.861,378.439 451.757,391.778 448.307,400.655C443.737,412.414 438.278,420.806 429.462,429.621C420.647,438.437 412.255,443.896 400.496,448.466C391.619,451.916 378.28,456.02 353.718,457.14C327.158,458.352 319.191,458.609 251.921,458.609C184.65,458.609 176.684,458.352 150.123,457.14C125.561,456.02 112.222,451.916 103.345,448.466C91.586,443.896 83.194,438.437 74.378,429.621C65.563,420.806 60.103,412.414 55.534,400.655C52.084,391.778 47.98,378.439 46.859,353.877C45.647,327.313 45.391,319.345 45.391,252.08C45.391,184.814 45.647,176.846 46.859,150.282C47.98,125.72 52.084,112.381 55.534,103.504C60.103,91.746 65.563,83.353 74.378,74.538C83.194,65.723 91.586,60.263 103.345,55.693C112.222,52.244 125.561,48.14 150.123,47.019C176.687,45.807 184.655,45.551 251.921,45.551Z" style="fill:white;fill-rule:nonzero;"/>
            </g>
            <g transform="matrix(0.968187,0,0,0.916919,2233.16,76.8511)">
                <path d="M251.921,336.053C205.543,336.053 167.947,298.457 167.947,252.08C167.947,205.702 205.543,168.106 251.921,168.106C298.298,168.106 335.894,205.702 335.894,252.08C335.894,298.457 298.298,336.053 251.921,336.053ZM251.921,122.715C180.474,122.715 122.556,180.633 122.556,252.08C122.556,323.526 180.474,381.444 251.921,381.444C323.367,381.444 381.285,323.526 381.285,252.08C381.285,180.633 323.367,122.715 251.921,122.715Z" style="fill:white;fill-rule:nonzero;"/>
            </g>
            <g transform="matrix(0.968187,0,0,0.916919,2233.16,76.8511)">
                <path d="M416.627,117.604C416.627,134.3 403.092,147.834 386.396,147.834C369.701,147.834 356.166,134.3 356.166,117.604C356.166,100.908 369.701,87.374 386.396,87.374C403.092,87.374 416.627,100.908 416.627,117.604Z" style="fill:white;fill-rule:nonzero;"/>
            </g>
        </g>
    </g>
</svg>
