<?xml version="1.0" encoding="UTF-8" standalone="no"?>
<!DOCTYPE svg PUBLIC "-//W3C//DTD SVG 1.1//EN" "http://www.w3.org/Graphics/SVG/1.1/DTD/svg11.dtd">
<svg width="100%" height="100%" viewBox="0 0 40 40" version="1.1" xmlns="http://www.w3.org/2000/svg" xmlns:xlink="http://www.w3.org/1999/xlink" xml:space="preserve" xmlns:serif="http://www.serif.com/" style="fill-rule:evenodd;clip-rule:evenodd;stroke-linejoin:round;stroke-miterlimit:1.41421;">
    <g transform="matrix(1,0,0,1,-50.061,0)">
        <g id="Linkedin" transform="matrix(0.0614991,0,0,0.0649377,-82.2761,0)">
            <rect x="2151.86" y="0" width="650.417" height="615.975" style="fill:none;"/>
            <clipPath id="_clip1">
                <rect x="2151.86" y="0" width="650.417" height="615.975"/>
            </clipPath>
            <g clip-path="url(#_clip1)">
                <g transform="matrix(16.2604,0,0,15.3994,-32824.3,0)">
                    <path d="M2191,11.387C2191,8.367 2189.8,5.47 2187.66,3.335C2185.53,1.2 2182.63,0 2179.61,0C2174.22,0 2167.78,0 2162.39,0C2159.37,0 2156.47,1.2 2154.34,3.335C2152.2,5.47 2151,8.367 2151,11.387C2151,16.784 2151,23.216 2151,28.613C2151,31.633 2152.2,34.53 2154.34,36.665C2156.47,38.8 2159.37,40 2162.39,40C2167.78,40 2174.22,40 2179.61,40C2182.63,40 2185.53,38.8 2187.66,36.665C2189.8,34.53 2191,31.633 2191,28.613C2191,23.216 2191,16.784 2191,11.387Z" style="fill:rgb(0,119,181);"/>
                </g>
                <g transform="matrix(13.55,0,0,12.8325,2233.16,77.0033)">
                    <path d="M30.674,30.676L25.339,30.676L25.339,22.323C25.339,20.331 25.301,17.767 22.565,17.767C19.786,17.767 19.362,19.937 19.362,22.178L19.362,30.676L14.029,30.676L14.029,13.497L19.147,13.497L19.147,15.844L19.22,15.844C19.932,14.493 21.675,13.069 24.273,13.069C29.675,13.069 30.674,16.626 30.674,21.253L30.674,30.676ZM8.008,11.148C6.292,11.148 4.911,9.761 4.911,8.051C4.911,6.344 6.292,4.957 8.008,4.957C9.716,4.957 11.103,6.344 11.103,8.051C11.103,9.761 9.716,11.148 8.008,11.148ZM10.679,30.676L5.334,30.676L5.334,13.497L10.679,13.497L10.679,30.676ZM33.334,0L2.655,0C1.19,0 0,1.163 0,2.594L0,33.403C0,34.836 1.19,36 2.655,36L33.334,36C34.801,36 36.001,34.836 36.001,33.403L36.001,2.594C36.001,1.163 34.801,0 33.334,0Z" style="fill:white;fill-rule:nonzero;"/>
                </g>
            </g>
        </g>
    </g>
</svg>
