<?xml version="1.0" encoding="UTF-8" standalone="no"?>
<!DOCTYPE svg PUBLIC "-//W3C//DTD SVG 1.1//EN" "http://www.w3.org/Graphics/SVG/1.1/DTD/svg11.dtd">
<svg width="100%" height="100%" viewBox="0 0 40 40" version="1.1" xmlns="http://www.w3.org/2000/svg" xmlns:xlink="http://www.w3.org/1999/xlink" xml:space="preserve" xmlns:serif="http://www.serif.com/" style="fill-rule:evenodd;clip-rule:evenodd;stroke-linejoin:round;stroke-miterlimit:1.41421;">
    <g transform="matrix(1,0,0,1,-100.061,0)">
        <g id="Twitter" transform="matrix(0.0614991,0,0,0.0649377,-32.2761,0)">
            <rect x="2151.86" y="0" width="650.417" height="615.975" style="fill:none;"/>
            <clipPath id="_clip1">
                <rect x="2151.86" y="0" width="650.417" height="615.975"/>
            </clipPath>
            <g clip-path="url(#_clip1)">
                <g transform="matrix(16.2604,0,0,15.3994,-32824.3,0)">
                    <path d="M2191,11.387C2191,8.367 2189.8,5.47 2187.66,3.335C2185.53,1.2 2182.63,0 2179.61,0C2174.22,0 2167.78,0 2162.39,0C2159.37,0 2156.47,1.2 2154.34,3.335C2152.2,5.47 2151,8.367 2151,11.387C2151,16.784 2151,23.216 2151,28.613C2151,31.633 2152.2,34.53 2154.34,36.665C2156.47,38.8 2159.37,40 2162.39,40C2167.78,40 2174.22,40 2179.61,40C2182.63,40 2185.53,38.8 2187.66,36.665C2189.8,34.53 2191,31.633 2191,28.613C2191,23.216 2191,16.784 2191,11.387Z" style="fill:rgb(65,155,214);"/>
                </g>
                <g transform="matrix(1.95125,0,0,1.84793,1750.32,-65.2943)">
                    <path d="M339.405,303.589C433.748,303.589 485.341,225.428 485.341,157.653C485.341,155.432 485.296,153.221 485.194,151.022C495.208,143.783 503.914,134.75 510.782,124.465C501.591,128.547 491.701,131.299 481.326,132.539C491.915,126.191 500.046,116.143 503.88,104.167C493.968,110.042 482.995,114.316 471.312,116.616C461.952,106.647 448.623,100.412 433.873,100.412C405.545,100.412 382.573,123.382 382.573,151.699C382.573,155.725 383.024,159.638 383.904,163.394C341.277,161.251 303.476,140.84 278.182,109.805C273.773,117.383 271.235,126.191 271.235,135.584C271.235,153.38 280.291,169.089 294.06,178.279C285.647,178.02 277.742,175.708 270.83,171.862C270.818,172.076 270.818,172.291 270.818,172.516C270.818,197.36 288.501,218.098 311.968,222.801C307.66,223.973 303.127,224.605 298.447,224.605C295.143,224.605 291.929,224.278 288.805,223.68C295.334,244.058 314.269,258.887 336.721,259.305C319.163,273.062 297.049,281.261 273.017,281.261C268.879,281.261 264.796,281.024 260.782,280.55C283.482,295.097 310.434,303.589 339.405,303.589Z" style="fill:white;fill-rule:nonzero;"/>
                </g>
            </g>
        </g>
    </g>
</svg>
