<?xml version="1.0" encoding="UTF-8" standalone="no"?>
<!DOCTYPE svg PUBLIC "-//W3C//DTD SVG 1.1//EN" "http://www.w3.org/Graphics/SVG/1.1/DTD/svg11.dtd">
<svg width="100%" height="100%" viewBox="0 0 438 437" version="1.1" xmlns="http://www.w3.org/2000/svg" xmlns:xlink="http://www.w3.org/1999/xlink" xml:space="preserve" xmlns:serif="http://www.serif.com/" style="fill-rule:evenodd;clip-rule:evenodd;stroke-linecap:round;stroke-linejoin:round;stroke-miterlimit:1.5;">
    <g transform="matrix(1,0,0,1,-1551.27,-7476.4)">
        <g transform="matrix(1.36231,0,0,1.58003,4231.67,1458.8)">
            <g>
                <g transform="matrix(0.2089,-0.180115,0.2089,0.180115,-3151,3211.02)">
                    <path d="M975,5056.15C975,5056.15 898.492,5056.77 819.718,5057.41C725.909,5058.18 650.408,5134.71 650.912,5228.52C651.021,5248.71 651.132,5269.33 651.24,5289.52C651.743,5383.16 727.794,5458.8 821.434,5458.8C934.773,5458.8 1078.95,5458.8 1167.83,5458.8C1213.21,5458.8 1250,5422.01 1250,5376.63C1250,5321.46 1250,5258.8 1250,5258.8" style="fill:none;stroke:white;stroke-width:61.62px;"/>
                </g>
                <g transform="matrix(-0.2089,0.180115,-0.2089,-0.180115,-462.954,4682.12)">
                    <path d="M975,5056.15C975,5056.15 898.492,5056.77 819.718,5057.41C725.909,5058.18 650.408,5134.71 650.912,5228.52C651.021,5248.71 651.132,5269.33 651.24,5289.52C651.743,5383.16 727.794,5458.8 821.434,5458.8C934.773,5458.8 1078.95,5458.8 1167.83,5458.8C1213.21,5458.8 1250,5422.01 1250,5376.63C1250,5321.46 1250,5258.8 1250,5258.8" style="fill:none;stroke:white;stroke-width:61.62px;"/>
                </g>
            </g>
        </g>
    </g>
</svg>
