<?xml version="1.0" encoding="UTF-8" standalone="no"?>
<!DOCTYPE svg PUBLIC "-//W3C//DTD SVG 1.1//EN" "http://www.w3.org/Graphics/SVG/1.1/DTD/svg11.dtd">
<svg width="100%" height="100%" viewBox="0 0 375 445" version="1.1" xmlns="http://www.w3.org/2000/svg" xmlns:xlink="http://www.w3.org/1999/xlink" xml:space="preserve" xmlns:serif="http://www.serif.com/" style="fill-rule:evenodd;clip-rule:evenodd;stroke-linecap:round;stroke-linejoin:round;stroke-miterlimit:1.5;">
    <g transform="matrix(1,0,0,1,-612.6,-7476.4)">
        <g transform="matrix(1.36231,0,0,1.58003,4231.67,1458.8)">
            <g transform="matrix(0.342555,-2.42861e-18,3.07624e-17,0.295352,-2990.01,2410.85)">
                <g>
                    <path d="M1038.54,5635.67C1030.68,5640.39 1020.89,5640.51 1012.91,5636C1004.93,5631.48 1000,5623.02 1000,5613.85C1000,5460.27 1000,4957.33 1000,4803.74C1000,4794.58 1004.93,4786.12 1012.91,4781.6C1020.89,4777.08 1030.68,4777.21 1038.54,4781.92C1168.17,4859.7 1587.3,5111.18 1713.63,5186.98C1721.3,5191.58 1725.99,5199.86 1725.99,5208.8C1725.99,5217.74 1721.3,5226.02 1713.63,5230.62C1587.3,5306.42 1168.17,5557.9 1038.54,5635.67Z" style="fill:white;stroke:white;stroke-width:53.14px;"/>
                </g>
            </g>
        </g>
    </g>
</svg>
