<?xml version="1.0" encoding="UTF-8" standalone="no"?>
<!DOCTYPE svg PUBLIC "-//W3C//DTD SVG 1.1//EN" "http://www.w3.org/Graphics/SVG/1.1/DTD/svg11.dtd">
<svg width="100%" height="100%" viewBox="0 0 182 242" version="1.1" xmlns="http://www.w3.org/2000/svg" xmlns:xlink="http://www.w3.org/1999/xlink" xml:space="preserve" xmlns:serif="http://www.serif.com/" style="fill-rule:evenodd;clip-rule:evenodd;stroke-linejoin:round;stroke-miterlimit:1.41421;">
    <g transform="matrix(1,0,0,1,-518.567,-4608.8)">
        <g transform="matrix(1.36231,0,0,1.58003,4231.67,1458.8)">
            <g id="map-marker-alt" transform="matrix(0.346823,0,0,0.299033,-2659,2070.18)">
                <g transform="matrix(1,0,0,1,-192,-256)">
                    <clipPath id="_clip1">
                        <rect x="0" y="0" width="384" height="512"/>
                    </clipPath>
                    <g clip-path="url(#_clip1)">
                        <path d="M172.268,501.67C26.97,291.031 0,269.413 0,192C0,85.961 85.961,0 192,0C298.039,0 384,85.961 384,192C384,269.413 357.03,291.031 211.732,501.67C202.197,515.444 181.802,515.443 172.268,501.67ZM192,272C236.183,272 272,236.183 272,192C272,147.817 236.183,112 192,112C147.817,112 112,147.817 112,192C112,236.183 147.817,272 192,272Z" style="fill:white;fill-rule:nonzero;"/>
                    </g>
                </g>
            </g>
        </g>
    </g>
</svg>
