<?xml version="1.0" encoding="UTF-8" standalone="no"?>
<!DOCTYPE svg PUBLIC "-//W3C//DTD SVG 1.1//EN" "http://www.w3.org/Graphics/SVG/1.1/DTD/svg11.dtd">
<svg width="100%" height="100%" viewBox="0 0 212 212" version="1.1" xmlns="http://www.w3.org/2000/svg" xmlns:xlink="http://www.w3.org/1999/xlink" xml:space="preserve" xmlns:serif="http://www.serif.com/" style="fill-rule:evenodd;clip-rule:evenodd;stroke-linejoin:round;stroke-miterlimit:1.41421;">
    <g transform="matrix(1,0,0,1,-1150,-4638.56)">
        <g transform="matrix(1.36231,0,0,1.58003,4231.67,1458.8)">
            <g id="at" transform="matrix(0.303163,0,0,0.261389,-2184.48,2079.38)">
                <g transform="matrix(1,0,0,1,-256,-256)">
                    <path d="M256,8C118.941,8 8,118.919 8,256C8,393.059 118.919,504 256,504C304.154,504 351.342,489.86 391.408,463.777C403.413,455.962 406.033,439.489 396.96,428.405L386.783,415.972C379.112,406.601 365.604,404.305 355.41,410.843C325.92,429.757 291.314,440 256,440C154.542,440 72,357.458 72,256C72,154.542 154.542,72 256,72C356.139,72 440,129.619 440,232C440,270.786 418.907,311.742 381.83,315.693C364.481,315.239 364.92,302.836 368.354,285.669L391.787,164.559C394.653,149.75 383.308,136 368.225,136L323.244,136C316.402,136 310.584,141.195 309.812,147.993L309.802,148.085C295.105,130.184 269.354,126.31 249.831,126.31C175.251,126.31 112,188.544 112,277.77C112,343.073 148.785,383.64 208,383.64C234.984,383.64 265.369,368.003 282.991,345.307C292.513,379.411 323.604,379.41 353.701,379.41C462.609,379.41 504,307.798 504,232C504,95.653 394.023,8 256,8ZM234.32,312.43C212.071,312.43 198.25,296.807 198.25,271.659C198.25,226.666 229.029,198.93 256.88,198.93C279.172,198.93 292.481,214.171 292.481,239.7C292.481,284.761 258.606,312.43 234.32,312.43Z" style="fill:white;fill-rule:nonzero;"/>
                </g>
            </g>
        </g>
    </g>
</svg>
