<?xml version="1.0" encoding="UTF-8" standalone="no"?>
<!DOCTYPE svg PUBLIC "-//W3C//DTD SVG 1.1//EN" "http://www.w3.org/Graphics/SVG/1.1/DTD/svg11.dtd">
<svg width="100%" height="100%" viewBox="0 0 401 438" version="1.1" xmlns="http://www.w3.org/2000/svg" xmlns:xlink="http://www.w3.org/1999/xlink" xml:space="preserve" xmlns:serif="http://www.serif.com/" style="fill-rule:evenodd;clip-rule:evenodd;stroke-linecap:round;stroke-linejoin:round;stroke-miterlimit:1.5;">
    <g transform="matrix(1,0,0,1,-5918.34,-996.37)">
        <g transform="matrix(1.37154,0,0,0.815893,8650.73,0)">
            <g transform="matrix(0.614241,0,0,0.752844,-605.408,-1191.32)">
                <g transform="matrix(0.729107,0,0,1,-3106.24,0)">
                    <rect x="1200" y="3450" width="600" height="450" style="fill:none;stroke:rgb(8,0,52);stroke-width:32.5px;"/>
                </g>
                <g transform="matrix(0.717161,0.180279,-0.131442,0.983616,-2640.7,-169.808)">
                    <path d="M1200,3450L1170,3380L1730,3130L1760,3200L1200,3450Z" style="fill:none;stroke:rgb(8,0,52);stroke-width:32.5px;"/>
                </g>
                <g transform="matrix(0.729107,0,0,1,-3106.24,0)">
                    <path d="M1800,3540L1200,3540" style="fill:none;stroke:rgb(8,0,52);stroke-width:32.5px;"/>
                </g>
                <g transform="matrix(0.729107,0,0,1,-3106.24,0)">
                    <path d="M1220,3360L1300,3410" style="fill:none;stroke:rgb(8,0,52);stroke-width:32.5px;"/>
                </g>
                <g transform="matrix(0.729107,0,0,1,-3040.62,-25)">
                    <path d="M1220,3360L1300,3410" style="fill:none;stroke:rgb(8,0,52);stroke-width:32.5px;"/>
                </g>
                <g transform="matrix(0.729107,0,0,1,-2970.34,-50)">
                    <path d="M1220,3360L1300,3410" style="fill:none;stroke:rgb(8,0,52);stroke-width:32.5px;"/>
                </g>
                <g transform="matrix(0.729107,0,0,1,-2894.8,-70)">
                    <path d="M1220,3360L1300,3410" style="fill:none;stroke:rgb(8,0,52);stroke-width:32.5px;"/>
                </g>
                <g transform="matrix(0.729107,0,0,1,-2829.18,-95)">
                    <path d="M1220,3360L1300,3410" style="fill:none;stroke:rgb(8,0,52);stroke-width:32.5px;"/>
                </g>
                <g transform="matrix(0.729107,0,0,1,-2763.56,-115)">
                    <path d="M1220,3360L1300,3410" style="fill:none;stroke:rgb(8,0,52);stroke-width:32.5px;"/>
                </g>
                <g transform="matrix(0.729107,0,0,1,-3106.24,0)">
                    <path d="M1300,3450L1240,3540" style="fill:none;stroke:rgb(8,0,52);stroke-width:32.5px;"/>
                </g>
                <g transform="matrix(0.729107,0,0,1,-3033.33,0)">
                    <path d="M1300,3450L1240,3540" style="fill:none;stroke:rgb(8,0,52);stroke-width:32.5px;"/>
                </g>
                <g transform="matrix(0.729107,0,0,1,-2967.71,0)">
                    <path d="M1300,3450L1240,3540" style="fill:none;stroke:rgb(8,0,52);stroke-width:32.5px;"/>
                </g>
                <g transform="matrix(0.729107,0,0,1,-2902.09,0)">
                    <path d="M1300,3450L1240,3540" style="fill:none;stroke:rgb(8,0,52);stroke-width:32.5px;"/>
                </g>
                <g transform="matrix(0.729107,0,0,1,-2829.18,0)">
                    <path d="M1300,3450L1240,3540" style="fill:none;stroke:rgb(8,0,52);stroke-width:32.5px;"/>
                </g>
                <g transform="matrix(0.729107,0,0,1,-2756.27,0)">
                    <path d="M1300,3450L1240,3540" style="fill:none;stroke:rgb(8,0,52);stroke-width:32.5px;"/>
                </g>
                <g transform="matrix(0.729107,0,0,1,-3106.24,0)">
                    <path d="M1260,3630L1730,3630" style="fill:none;stroke:rgb(8,0,52);stroke-width:32.5px;"/>
                </g>
                <g transform="matrix(0.729107,0,0,1,-3106.24,0)">
                    <path d="M1260,3740L1550,3740" style="fill:none;stroke:rgb(8,0,52);stroke-width:32.5px;"/>
                </g>
                <g transform="matrix(0.729107,0,0,1,-3106.24,0)">
                    <path d="M1600,3740L1730,3740" style="fill:none;stroke:rgb(8,0,52);stroke-width:32.5px;"/>
                </g>
            </g>
        </g>
    </g>
</svg>
