<?xml version="1.0" encoding="UTF-8" standalone="no"?>
<!DOCTYPE svg PUBLIC "-//W3C//DTD SVG 1.1//EN" "http://www.w3.org/Graphics/SVG/1.1/DTD/svg11.dtd">
<svg width="100%" height="100%" viewBox="0 0 406 399" version="1.1" xmlns="http://www.w3.org/2000/svg" xmlns:xlink="http://www.w3.org/1999/xlink" xml:space="preserve" xmlns:serif="http://www.serif.com/" style="fill-rule:evenodd;clip-rule:evenodd;stroke-linecap:round;stroke-linejoin:round;stroke-miterlimit:1.5;">
    <g transform="matrix(1,0,0,1,-4935.46,-1024.34)">
        <g transform="matrix(1.37154,0,0,0.815893,8650.73,0)">
            <g transform="matrix(0.566479,0,0,0.694305,-1409.22,-253.195)">
                <g>
                    <g>
                        <g transform="matrix(0.729107,0,0,1,-3179.15,110)">
                            <path d="M1300,2490L1500,2700L1900,2290L1700,2100L1300,2490Z" style="fill:none;stroke:rgb(8,0,52);stroke-width:32.5px;"/>
                        </g>
                        <g transform="matrix(0.729107,0,0,1,-3106.24,0)">
                            <path d="M1600,2210C1686.31,2161.12 1720.68,2208.82 1760,2246.12C1804.86,2288.68 1831.5,2305.97 1800,2400" style="fill:none;stroke:rgb(8,0,52);stroke-width:32.5px;"/>
                        </g>
                        <g transform="matrix(0.729107,0,0,1,-3106.24,0)">
                            <path d="M1200,2600L1130,2860L1400,2810" style="fill:none;stroke:rgb(8,0,52);stroke-width:32.5px;"/>
                        </g>
                        <g transform="matrix(0.729107,0,0,1,-3106.24,0)">
                            <path d="M1150,2800L1200,2844.72L1130,2860L1150,2800Z" style="fill:rgb(7,4,0);stroke:rgb(8,0,52);stroke-width:32.5px;"/>
                        </g>
                        <g transform="matrix(0.729107,0,0,1,-3102.59,10)">
                            <path d="M1650,2260L1260,2640" style="fill:none;stroke:rgb(8,0,52);stroke-width:32.5px;"/>
                        </g>
                        <g transform="matrix(0.729107,0,0,1,-3036.97,80)">
                            <path d="M1635,2260L1245,2660" style="fill:none;stroke:rgb(8,0,52);stroke-width:32.5px;"/>
                        </g>
                    </g>
                </g>
            </g>
        </g>
    </g>
</svg>
