<?xml version="1.0" encoding="UTF-8" standalone="no"?>
<!DOCTYPE svg PUBLIC "-//W3C//DTD SVG 1.1//EN" "http://www.w3.org/Graphics/SVG/1.1/DTD/svg11.dtd">
<svg width="100%" height="100%" viewBox="0 0 420 410" version="1.1" xmlns="http://www.w3.org/2000/svg" xmlns:xlink="http://www.w3.org/1999/xlink" xml:space="preserve" xmlns:serif="http://www.serif.com/" style="fill-rule:evenodd;clip-rule:evenodd;stroke-linecap:round;stroke-linejoin:round;stroke-miterlimit:1.5;">
    <g transform="matrix(1,0,0,1,-5930.82,-2000.4)">
        <g transform="matrix(1.37154,0,0,0.815893,8650.73,0)">
            <g transform="matrix(1.23129,0,0,1.11429,423.323,-370.321)">
                <g transform="matrix(0.358704,0,0,0.645061,-2364.83,908.006)">
                    <ellipse cx="1275" cy="3110" rx="115" ry="90" style="fill:none;stroke:rgb(8,0,52);stroke-width:32.12px;"/>
                </g>
                <g transform="matrix(0.358704,0,0,0.645061,-2210.47,870.031)">
                    <ellipse cx="1275" cy="3110" rx="115" ry="90" style="fill:none;stroke:rgb(8,0,52);stroke-width:32.12px;"/>
                </g>
                <g transform="matrix(0.53227,0,0,0.894762,-2598.1,84.5127)">
                    <path d="M1375,2800L1375,3162.44" style="fill:none;stroke:rgb(8,0,52);stroke-width:22.4px;"/>
                </g>
                <g transform="matrix(0.53227,0,0,0.894762,-2443.74,39.7746)">
                    <path d="M1375,2800L1375,3175.62" style="fill:none;stroke:rgb(8,0,52);stroke-width:22.4px;"/>
                </g>
                <g transform="matrix(0.53227,0,0,0.894762,-2598.1,80.0389)">
                    <path d="M1665,2752.89L1375,2802.59L1375,2900L1665,2845.54" style="fill:none;stroke:rgb(8,0,52);stroke-width:22.4px;"/>
                </g>
            </g>
        </g>
    </g>
</svg>
