<?xml version="1.0" encoding="UTF-8" standalone="no"?>
<!DOCTYPE svg PUBLIC "-//W3C//DTD SVG 1.1//EN" "http://www.w3.org/Graphics/SVG/1.1/DTD/svg11.dtd">
<svg width="100%" height="100%" viewBox="0 0 446 306" version="1.1" xmlns="http://www.w3.org/2000/svg" xmlns:xlink="http://www.w3.org/1999/xlink" xml:space="preserve" xmlns:serif="http://www.serif.com/" style="fill-rule:evenodd;clip-rule:evenodd;stroke-linecap:round;stroke-linejoin:round;stroke-miterlimit:1.5;">
    <g transform="matrix(1,0,0,1,-5915.58,-120.912)">
        <g transform="matrix(1.37154,0,0,0.815893,8650.73,0)">
            <g transform="matrix(1,0,0,1.22565,-8.80396,-706.526)">
                <g transform="matrix(0.819451,0,0,0.635805,-153.647,-408.895)">
                    <g transform="matrix(0.729107,0,0,1,-3106.24,10)">
                        <path d="M1350,1750C1291.42,1756.95 1258.29,1790.49 1250,1850L1250,1900C1253.15,1938.62 1236.56,1958.94 1210,1970" style="fill:none;stroke:rgb(8,0,52);stroke-width:34.75px;"/>
                    </g>
                    <g transform="matrix(0.729107,1.22465e-16,8.92898e-17,-1,-3106.24,3950)">
                        <path d="M1350,1750C1291.42,1756.95 1258.29,1790.49 1250,1850L1250,1900C1253.15,1938.62 1236.56,1958.94 1210,1970" style="fill:none;stroke:rgb(8,0,52);stroke-width:34.75px;"/>
                    </g>
                </g>
                <g transform="matrix(-0.819426,-0.00683701,0.00468433,-0.635786,-3501.64,2094.35)">
                    <g transform="matrix(0.729107,0,0,1,-3106.24,10)">
                        <path d="M1350,1750C1291.42,1756.95 1258.29,1790.49 1250,1850L1250,1900C1253.15,1938.62 1236.56,1958.94 1210,1970" style="fill:none;stroke:rgb(8,0,52);stroke-width:34.75px;"/>
                    </g>
                    <g transform="matrix(0.729107,1.22465e-16,8.92898e-17,-1,-3106.24,3950)">
                        <path d="M1350,1750C1291.42,1756.95 1258.29,1790.49 1250,1850L1250,1900C1253.15,1938.62 1236.56,1958.94 1210,1970" style="fill:none;stroke:rgb(8,0,52);stroke-width:34.75px;"/>
                    </g>
                </g>
            </g>
        </g>
    </g>
</svg>
