<?xml version="1.0" encoding="UTF-8" standalone="no"?>
<!DOCTYPE svg PUBLIC "-//W3C//DTD SVG 1.1//EN" "http://www.w3.org/Graphics/SVG/1.1/DTD/svg11.dtd">
<svg width="100%" height="100%" viewBox="0 0 70 70" version="1.1" xmlns="http://www.w3.org/2000/svg" xmlns:xlink="http://www.w3.org/1999/xlink" xml:space="preserve" xmlns:serif="http://www.serif.com/" style="fill-rule:evenodd;clip-rule:evenodd;stroke-linecap:round;stroke-linejoin:round;stroke-miterlimit:1.5;">
    <g transform="matrix(1,0,0,1,-116.486,-75.0992)">
        <g id="USA" transform="matrix(1,0,0,1,116.486,75.0992)">
            <rect x="0" y="0" width="70" height="70" style="fill:none;"/>
            <clipPath id="_clip1">
                <rect x="0" y="0" width="70" height="70"/>
            </clipPath>
            <g clip-path="url(#_clip1)">
                <g transform="matrix(1,0,0,1,-116.486,-75.0992)">
                    <path d="M116.486,75.099L116.486,145.099L186.486,75.099L116.486,75.099Z" style="fill:none;"/>
                    <clipPath id="_clip2">
                        <path d="M116.486,75.099L116.486,145.099L186.486,75.099L116.486,75.099Z"/>
                    </clipPath>
                    <g clip-path="url(#_clip2)">
                        <g transform="matrix(0.964204,0,0,1.89861,118.26,76.8735)">
                            <ellipse cx="34.459" cy="17.5" rx="34.459" ry="17.5" style="fill:none;"/>
                            <clipPath id="_clip3">
                                <ellipse cx="34.459" cy="17.5" rx="34.459" ry="17.5"/>
                            </clipPath>
                            <g clip-path="url(#_clip3)">
                                <g transform="matrix(1.03713,0,0,0.526701,-82.203,-0.934529)">
                                    <rect x="77.486" y="0" width="70" height="10.306" style="fill:rgb(201,0,24);"/>
                                </g>
                                <g transform="matrix(1.03713,0,0,0.526701,-82.203,4.49349)">
                                    <rect x="77.486" y="0" width="70" height="10.306" style="fill:white;"/>
                                </g>
                                <g transform="matrix(1.03713,0,0,0.526701,-82.203,9.92151)">
                                    <rect x="77.486" y="0" width="70" height="10.306" style="fill:rgb(201,0,24);"/>
                                </g>
                                <g transform="matrix(1.03713,0,0,0.526701,-82.203,15.3495)">
                                    <rect x="77.486" y="0" width="70" height="10.306" style="fill:white;"/>
                                </g>
                                <g transform="matrix(1.03713,0,0,0.526701,-82.203,20.7776)">
                                    <rect x="77.486" y="0" width="70" height="10.306" style="fill:rgb(201,0,24);"/>
                                </g>
                                <g transform="matrix(1.03713,0,0,0.526701,-82.203,26.2056)">
                                    <rect x="77.486" y="0" width="70" height="10.306" style="fill:white;"/>
                                </g>
                                <g transform="matrix(1.03713,0,0,0.526701,-82.203,-0.934529)">
                                    <rect x="77.486" y="0" width="37.683" height="30.917" style="fill:rgb(54,0,139);"/>
                                </g>
                                <g transform="matrix(1.03713,0,0,0.526701,-82.203,31.6336)">
                                    <rect x="77.486" y="0" width="70" height="10.306" style="fill:rgb(201,0,24);"/>
                                </g>
                                <g transform="matrix(1.93266,0,0,1.0534,-182.938,-16.1441)">
                                    <path d="M109.756,23.591L110.369,25.418L112.353,25.418L110.748,26.546L111.361,28.372L109.756,27.244L108.152,28.372L108.765,26.546L107.16,25.418L109.143,25.418L109.756,23.591Z" style="fill:white;"/>
                                </g>
                                <g transform="matrix(1.93266,0,0,1.0534,-199.438,-16.1441)">
                                    <path d="M109.756,23.591L110.369,25.418L112.353,25.418L110.748,26.546L111.361,28.372L109.756,27.244L108.152,28.372L108.765,26.546L107.16,25.418L109.143,25.418L109.756,23.591Z" style="fill:white;"/>
                                </g>
                                <g transform="matrix(1.93266,0,0,1.0534,-213.962,-16.1441)">
                                    <path d="M109.756,23.591L110.369,25.418L112.353,25.418L110.748,26.546L111.361,28.372L109.756,27.244L108.152,28.372L108.765,26.546L107.16,25.418L109.143,25.418L109.756,23.591Z" style="fill:white;"/>
                                </g>
                                <g transform="matrix(1.93266,0,0,1.0534,-191.29,-20.1619)">
                                    <path d="M109.756,23.591L110.369,25.418L112.353,25.418L110.748,26.546L111.361,28.372L109.756,27.244L108.152,28.372L108.765,26.546L107.16,25.418L109.143,25.418L109.756,23.591Z" style="fill:white;"/>
                                </g>
                                <g transform="matrix(1.93266,0,0,1.0534,-182.938,-25.1982)">
                                    <path d="M109.756,23.591L110.369,25.418L112.353,25.418L110.748,26.546L111.361,28.372L109.756,27.244L108.152,28.372L108.765,26.546L107.16,25.418L109.143,25.418L109.756,23.591Z" style="fill:white;"/>
                                </g>
                                <g transform="matrix(1.93266,0,0,1.0534,-199.438,-25.1982)">
                                    <path d="M109.756,23.591L110.369,25.418L112.353,25.418L110.748,26.546L111.361,28.372L109.756,27.244L108.152,28.372L108.765,26.546L107.16,25.418L109.143,25.418L109.756,23.591Z" style="fill:white;"/>
                                </g>
                                <g transform="matrix(1.93266,0,0,1.0534,-207.104,-20.1619)">
                                    <path d="M109.756,23.591L110.369,25.418L112.353,25.418L110.748,26.546L111.361,28.372L109.756,27.244L108.152,28.372L108.765,26.546L107.16,25.418L109.143,25.418L109.756,23.591Z" style="fill:white;"/>
                                </g>
                            </g>
                            <ellipse cx="34.459" cy="17.5" rx="34.459" ry="17.5" style="fill:none;stroke:black;stroke-width:1.76px;"/>
                        </g>
                    </g>
                </g>
                <g transform="matrix(-1,0,0,-1,186.486,145.099)">
                    <path d="M116.486,75.099L116.486,145.099L186.486,75.099L116.486,75.099Z" style="fill:none;"/>
                    <clipPath id="_clip4">
                        <path d="M116.486,75.099L116.486,145.099L186.486,75.099L116.486,75.099Z"/>
                    </clipPath>
                    <g clip-path="url(#_clip4)">
                        <g transform="matrix(-0.964204,-0,-0,-1.89861,184.712,143.325)">
                            <ellipse cx="34.459" cy="17.5" rx="34.459" ry="17.5" style="fill:none;"/>
                            <clipPath id="_clip5">
                                <ellipse cx="34.459" cy="17.5" rx="34.459" ry="17.5"/>
                            </clipPath>
                            <g clip-path="url(#_clip5)">
                                <g transform="matrix(1.03713,0,0,0.526701,-162.743,-0.934529)">
                                    <rect x="155.143" y="0" width="70" height="70" style="fill:rgb(54,0,139);"/>
                                </g>
                                <g transform="matrix(0.887898,0,0,0.540398,-134.406,-1.89336)">
                                    <rect x="180.257" y="1.774" width="19.857" height="68.226" style="fill:white;"/>
                                </g>
                                <g transform="matrix(6.3113e-17,-0.522912,1.0641,3.31209e-17,-3.72821,116.95)">
                                    <rect x="180.257" y="1.774" width="19.857" height="68.226" style="fill:white;"/>
                                </g>
                                <g transform="matrix(0.43105,0.219091,-1.11914,0.567879,-7.35747,-44.5475)">
                                    <rect x="180.257" y="1.774" width="19.857" height="68.226" style="fill:white;"/>
                                </g>
                                <g transform="matrix(-0.43105,0.219091,1.11914,0.567879,76.2759,-44.5475)">
                                    <rect x="180.257" y="1.774" width="19.857" height="68.226" style="fill:white;"/>
                                </g>
                                <g transform="matrix(0.574523,0,0,0.540398,-74.955,-1.89336)">
                                    <rect x="180.257" y="1.774" width="19.857" height="68.226" style="fill:rgb(201,0,24);"/>
                                </g>
                                <g transform="matrix(0.145102,-0.0736898,0.53583,0.272119,-33.9327,11.7348)">
                                    <rect x="180.257" y="1.774" width="19.857" height="68.226" style="fill:rgb(201,0,24);"/>
                                </g>
                                <g transform="matrix(-0.145102,-0.0736898,-0.444475,0.225725,103.425,11.5189)">
                                    <rect x="180.257" y="1.774" width="19.857" height="68.226" style="fill:rgb(201,0,24);"/>
                                </g>
                                <g transform="matrix(-0.145102,0.0736898,-0.495747,-0.251763,106.833,25.5688)">
                                    <rect x="180.257" y="1.774" width="19.857" height="68.226" style="fill:rgb(201,0,24);"/>
                                </g>
                                <g transform="matrix(0.145102,0.0736898,0.412376,-0.209424,-31.9931,22.3724)">
                                    <rect x="180.257" y="1.774" width="19.857" height="68.226" style="fill:rgb(201,0,24);"/>
                                </g>
                                <g transform="matrix(4.20597e-17,-0.348834,1.0641,3.30899e-17,-3.87637,83.8432)">
                                    <rect x="180.257" y="1.774" width="19.857" height="68.226" style="fill:rgb(201,0,24);"/>
                                </g>
                                <g transform="matrix(0.950696,0,0,0.649762,-145.751,-4.43245)">
                                    <rect x="195.4" y="18.015" width="3.429" height="10.409" style="fill:white;"/>
                                </g>
                                <g transform="matrix(0.950696,0,0,0.649762,-145.751,9.26177)">
                                    <rect x="195.4" y="18.015" width="3.429" height="10.409" style="fill:white;"/>
                                </g>
                                <g transform="matrix(0.786484,0,0,0.649762,-127.769,9.26177)">
                                    <rect x="195.4" y="18.015" width="3.429" height="10.409" style="fill:white;"/>
                                </g>
                                <g transform="matrix(0.786484,0,0,0.649762,-127.769,-4.46488)">
                                    <rect x="195.4" y="18.015" width="3.429" height="10.409" style="fill:white;"/>
                                </g>
                                <g transform="matrix(5.99047e-17,0.494642,-1.70669,5.36266e-17,88.5267,-84.3124)">
                                    <rect x="195.4" y="18.015" width="3.429" height="10.409" style="fill:white;"/>
                                </g>
                                <g transform="matrix(5.99047e-17,0.494642,-1.70669,5.36266e-17,88.5267,-75.6572)">
                                    <rect x="195.4" y="18.015" width="3.429" height="10.409" style="fill:white;"/>
                                </g>
                                <g transform="matrix(5.99047e-17,0.494642,-1.69384,5.32228e-17,59.1219,-75.6572)">
                                    <rect x="195.4" y="18.015" width="3.429" height="10.409" style="fill:white;"/>
                                </g>
                                <g transform="matrix(5.99047e-17,0.494642,-1.69384,5.32228e-17,59.1219,-84.3449)">
                                    <rect x="195.4" y="18.015" width="3.429" height="10.409" style="fill:white;"/>
                                </g>
                            </g>
                            <ellipse cx="34.459" cy="17.5" rx="34.459" ry="17.5" style="fill:none;stroke:black;stroke-width:1.76px;"/>
                        </g>
                    </g>
                </g>
                <g transform="matrix(1,0,0,1,-116.486,-75.0992)">
                    <path d="M175.707,85.736L127.041,133.902" style="fill:none;stroke:black;stroke-width:2.65px;stroke-linecap:butt;"/>
                </g>
            </g>
        </g>
    </g>
</svg>
