<?xml version="1.0" encoding="UTF-8" standalone="no"?>
<!DOCTYPE svg PUBLIC "-//W3C//DTD SVG 1.1//EN" "http://www.w3.org/Graphics/SVG/1.1/DTD/svg11.dtd">
<svg width="100%" height="100%" viewBox="0 0 70 70" version="1.1" xmlns="http://www.w3.org/2000/svg" xmlns:xlink="http://www.w3.org/1999/xlink" xml:space="preserve" xmlns:serif="http://www.serif.com/" style="fill-rule:evenodd;clip-rule:evenodd;stroke-linecap:round;stroke-linejoin:round;stroke-miterlimit:1.5;">
    <rect id="France" x="0" y="0" width="70" height="70" style="fill:none;"/>
    <clipPath id="_clip1">
        <rect id="France1" serif:id="France" x="0" y="0" width="70" height="70"/>
    </clipPath>
    <g clip-path="url(#_clip1)">
        <g transform="matrix(0.964204,0,0,1.89861,1.77431,1.77431)">
            <ellipse cx="34.459" cy="17.5" rx="34.459" ry="17.5" style="fill:none;"/>
            <clipPath id="_clip2">
                <ellipse cx="34.459" cy="17.5" rx="34.459" ry="17.5"/>
            </clipPath>
            <g clip-path="url(#_clip2)">
                <g transform="matrix(0.984549,0,0,0.5,45.8618,7.10543e-15)">
                    <rect x="0" y="0" width="23.418" height="70" style="fill:rgb(224,0,31);"/>
                </g>
                <g transform="matrix(0.984549,0,0,0.5,23.0566,7.10543e-15)">
                    <rect x="0" y="0" width="23.418" height="70" style="fill:white;"/>
                </g>
                <g transform="matrix(0.984549,0,0,0.5,0,3.55271e-15)">
                    <rect x="0" y="0" width="23.418" height="70" style="fill:rgb(1,0,216);"/>
                </g>
            </g>
            <ellipse cx="34.459" cy="17.5" rx="34.459" ry="17.5" style="fill:none;stroke:black;stroke-width:1.76px;"/>
        </g>
    </g>
</svg>
