<?xml version="1.0" encoding="UTF-8" standalone="no"?>
<!DOCTYPE svg PUBLIC "-//W3C//DTD SVG 1.1//EN" "http://www.w3.org/Graphics/SVG/1.1/DTD/svg11.dtd">
<svg width="100%" height="100%" viewBox="0 0 210 552" version="1.1" xmlns="http://www.w3.org/2000/svg" xmlns:xlink="http://www.w3.org/1999/xlink" xml:space="preserve" xmlns:serif="http://www.serif.com/" style="fill-rule:evenodd;clip-rule:evenodd;stroke-linecap:round;stroke-linejoin:round;stroke-miterlimit:1.5;">
    <g transform="matrix(1,0,0,1,-3787.05,-1543.38)">
        <g transform="matrix(1,0,0,1,2116,1253.9)">
            <g id="v2" transform="matrix(1.60127,0,0,1,271.828,26.5319)">
                <g id="Corps-2" serif:id="Corps 2">
                    <g transform="matrix(0.208169,0,0,1,702.053,18.8689)">
                        <rect x="840" y="450" width="120" height="30" style="fill:rgb(8,0,52);"/>
                    </g>
                    <g transform="matrix(0.208169,0,0,1,702.053,48.8689)">
                        <rect x="840" y="450" width="120" height="30" style="fill:white;"/>
                    </g>
                    <g transform="matrix(0.208169,0,0,1,702.053,78.8689)">
                        <rect x="840" y="450" width="120" height="30" style="fill:rgb(8,0,52);"/>
                    </g>
                    <g transform="matrix(0.208169,0,0,1,702.053,108.869)">
                        <rect x="840" y="450" width="120" height="30" style="fill:white;"/>
                    </g>
                    <g transform="matrix(0.208169,0,0,0.666667,702.053,288.869)">
                        <rect x="840" y="450" width="120" height="30" style="fill:rgb(8,0,52);"/>
                    </g>
                    <g transform="matrix(0.208169,0,0,1,801.974,17.25)">
                        <rect x="840" y="450" width="120" height="30" style="fill:rgb(8,0,52);"/>
                    </g>
                    <g transform="matrix(0.208169,0,0,1,801.974,47.25)">
                        <rect x="840" y="450" width="120" height="30" style="fill:white;"/>
                    </g>
                    <g transform="matrix(0.208169,0,0,1,801.974,77.25)">
                        <rect x="840" y="450" width="120" height="30" style="fill:rgb(8,0,52);"/>
                    </g>
                    <g transform="matrix(0.208169,0,0,1,801.974,107.25)">
                        <rect x="840" y="450" width="120" height="30" style="fill:white;"/>
                    </g>
                    <g transform="matrix(0.208169,0,0,0.666667,801.974,287.25)">
                        <rect x="840" y="450" width="120" height="30" style="fill:rgb(8,0,52);"/>
                    </g>
                    <g transform="matrix(0.624506,0,0,1,-231.792,172.75)">
                        <path d="M1825.33,234.5C1825.33,234.5 1819.67,234.5 1812.15,234.5C1802.39,234.5 1793.02,238.379 1786.12,245.285C1779.21,252.19 1775.33,261.556 1775.33,271.321C1775.33,285.099 1775.33,297.473 1775.33,297.473L1815.33,297.223L1815.33,284.5L1935.33,284.5L1935.33,294.5L1975.33,294.5C1975.33,294.5 1975.33,283.733 1975.33,271.321C1975.33,261.556 1971.45,252.19 1964.55,245.285C1957.64,238.379 1948.28,234.5 1938.51,234.5C1931,234.5 1925.33,234.5 1925.33,234.5C1925.16,266.779 1825.58,265.4 1825.33,234.5Z" style="fill:white;"/>
                    </g>
                    <g transform="matrix(0.624506,0,0,1,-231.792,172.75)">
                        <path d="M1815.33,436.119L1775.33,436.119C1775.33,436.119 1775.33,437.134 1775.33,438.686C1775.33,448.689 1783.34,456.851 1793.34,457.043C1794.8,457.038 1796.26,457.021 1797.75,456.963C1807.57,456.549 1815.32,448.467 1815.32,438.637C1815.33,437.112 1815.33,436.119 1815.33,436.119Z" style="fill:rgb(228,180,128);stroke:black;stroke-width:6px;"/>
                    </g>
                    <g transform="matrix(0.624506,0,0,1,-131.871,171.941)">
                        <path d="M1815.33,436.119L1775.33,436.119C1775.33,436.119 1775.33,437.488 1775.33,439.477C1775.33,449.276 1783.03,457.348 1792.82,457.816C1794.47,457.849 1796.13,457.852 1797.78,457.786C1807.58,457.354 1815.29,449.287 1815.29,439.484C1815.33,437.49 1815.33,436.119 1815.33,436.119Z" style="fill:rgb(228,180,128);stroke:black;stroke-width:6px;"/>
                    </g>
                    <g transform="matrix(0.624506,0,0,1,-231.792,172.75)">
                        <path d="M1775.33,434.5C1775.33,434.5 1775.33,326.631 1775.33,269.331C1775.33,260.093 1779,251.234 1785.54,244.702C1792.07,238.17 1800.93,234.5 1810.16,234.5C1831.73,234.5 1855.33,234.5 1855.33,234.5L1855.33,204.5L1895.33,204.5L1895.33,234.5C1895.33,234.5 1918.94,234.5 1940.5,234.5C1949.74,234.5 1958.6,238.17 1965.13,244.702C1971.66,251.234 1975.33,260.093 1975.33,269.331C1975.33,326.631 1975.33,434.5 1975.33,434.5C1975.31,464.612 1935.31,464.519 1935.33,434.5L1815.33,434.5C1815.04,465.466 1775,465.483 1775.33,434.5Z" style="fill:none;stroke:black;stroke-width:9.89px;stroke-linecap:butt;"/>
                    </g>
                </g>
                <g id="Corps-1" serif:id="Corps 1">
                    <g transform="matrix(0.624506,0,0,1,377.309,7.25002)">
                        <rect x="840" y="450" width="120" height="30" style="fill:rgb(8,0,52);"/>
                    </g>
                    <g transform="matrix(0.624506,0,0,1,377.309,37.25)">
                        <rect x="840" y="450" width="120" height="30" style="fill:white;"/>
                    </g>
                    <g transform="matrix(0.624506,0,0,1,377.309,67.25)">
                        <rect x="840" y="450" width="120" height="30" style="fill:rgb(8,0,52);"/>
                    </g>
                    <g transform="matrix(0.624506,0,0,1,377.309,97.25)">
                        <rect x="840" y="450" width="120" height="30" style="fill:white;"/>
                    </g>
                    <g transform="matrix(0.624506,0,0,1,377.309,127.25)">
                        <rect x="840" y="450" width="120" height="30" style="fill:rgb(8,0,52);"/>
                    </g>
                    <g transform="matrix(0.624506,0,0,1,-231.792,172.75)">
                        <path d="M1815.33,288.5L1815.33,434.5L1935.33,434.5L1935.33,288.5" style="fill:none;stroke:black;stroke-width:9.89px;"/>
                    </g>
                </g>
                <g id="Tête" transform="matrix(1,0,0,1,-5.68434e-14,-4.19058)">
                    <g transform="matrix(0.624506,0,0,1,-231.792,176.941)">
                        <g id="Col">
                            <path d="M1855.33,204.5L1855.33,234.5L1825.33,234.5C1825.57,268.312 1923.33,268.326 1925.33,234.5L1895.33,234.5L1895.33,204.5L1855.33,204.5Z" style="fill:rgb(228,180,128);stroke:black;stroke-width:8px;"/>
                        </g>
                    </g>
                    <g transform="matrix(0.624506,0,0,1,-231.792,176.941)">
                        <path d="M1834.83,117.5L1834.83,144.309C1817.65,145.331 1818.96,163.451 1834.83,164.309C1834.83,164.309 1834.95,171.162 1835.07,178.338C1835.32,193.986 1843.35,208.48 1856.47,217.008C1869.3,225.307 1882.87,225.438 1895.51,217.063C1908.2,208.622 1915.83,194.389 1915.83,179.145C1915.83,171.685 1915.83,164.309 1915.83,164.309C1932.53,162.527 1932.25,145.357 1915.83,144.309L1915.83,117.5L1834.83,117.5Z" style="fill:rgb(228,180,128);stroke:black;stroke-width:9.89px;"/>
                    </g>
                    <g id="Bouche" transform="matrix(0.624506,0,0,1,377.315,14.2499)">
                        <path d="M920,360C914.297,373.964 885.963,373.592 880,360" style="fill:none;stroke:black;stroke-width:8px;"/>
                    </g>
                    <g id="Nez" transform="matrix(0.624506,0,0,1,377.622,13.9406)">
                        <path d="M900,335L896,350L903,350" style="fill:none;stroke:black;stroke-width:8px;"/>
                    </g>
                    <g id="Cheveux" transform="matrix(0.624506,0,0,1,-231.792,176.941)">
                        <path d="M1835.83,164.5L1835.83,144.5L1830.2,144.5L1830.2,114.5C1839.91,86.497 1913.99,88.359 1920.49,114.5L1920.49,144.5L1914.83,144.5L1914.83,164.5L1914.83,141.5L1895.33,124.5L1835.83,141.119L1835.83,164.5Z" style="stroke:black;stroke-width:8px;"/>
                    </g>
                    <g id="Yeux" transform="matrix(1,0,0,1,0.00321485,-0.0975471)">
                        <g id="Oeuil-2" serif:id="Oeuil 2" transform="matrix(4.16334e-17,1,-0.624506,6.245e-17,1125.47,-545.85)">
                            <path d="M880,310C876.37,313.297 876.669,316.633 880,320" style="fill:none;stroke:black;stroke-width:8px;"/>
                        </g>
                        <g id="Oeuil-1" serif:id="Oeuil 1" transform="matrix(3.824e-17,1,-0.624506,6.12323e-17,1146.71,-545.85)">
                            <path d="M880,310C877.121,313.359 877.519,316.688 880,320" style="fill:none;stroke:black;stroke-width:8px;"/>
                        </g>
                    </g>
                </g>
                <g id="Jambes" transform="matrix(1,0,0,1,-0.833053,0.309919)">
                    <g id="Pantalon" transform="matrix(0.624506,0,0,1,377.308,8.86887)">
                        <path d="M840.002,600L840.002,770C855.419,780.946 871.997,781.721 890,770L890,640L910,640L910,770C922.887,781.252 939.05,782.749 959.998,770L960,600" style="stroke:black;stroke-width:9.93px;"/>
                    </g>
                    <g id="Pied-2" serif:id="Pied 2" transform="matrix(0.624506,0,0,1,377.336,8.86887)">
                        <path d="M820,770L840.002,770C856.063,780.302 872.686,781.031 890,770L890,800L820,800C799.333,799.547 800,771.043 820,770Z" style="fill:rgb(44,44,44);stroke:black;stroke-width:9.93px;"/>
                    </g>
                    <g id="Pied-1" serif:id="Pied 1" transform="matrix(0.624506,0,0,1,439.74,8.87314)">
                        <path d="M810,770C825.316,779.489 841.94,781.817 859.998,770L880,770C895.06,769.953 893.107,799.957 880,800L810,800L810,770Z" style="fill:rgb(44,44,44);stroke:black;stroke-width:9.93px;"/>
                    </g>
                </g>
            </g>
        </g>
    </g>
</svg>
